<?xml version="1.0" encoding="UTF-8" standalone="no"?>
<!-- Created with Inkscape (http://www.inkscape.org/) -->

<svg
   width="133.41994mm"
   height="21.86331mm"
   viewBox="0 0 133.41994 21.863309"
   version="1.1"
   id="svg5"
   xmlns:inkscape="http://www.inkscape.org/namespaces/inkscape"
   xmlns:sodipodi="http://sodipodi.sourceforge.net/DTD/sodipodi-0.dtd"
   xmlns="http://www.w3.org/2000/svg"
   xmlns:svg="http://www.w3.org/2000/svg">
  <sodipodi:namedview
     id="namedview7"
     pagecolor="#ffffff"
     bordercolor="#000000"
     borderopacity="0.25"
     inkscape:showpageshadow="2"
     inkscape:pageopacity="0.0"
     inkscape:pagecheckerboard="0"
     inkscape:deskcolor="#d1d1d1"
     inkscape:document-units="mm"
     showgrid="false" />
  <defs
     id="defs2" />
  <g
     inkscape:label="Layer 1"
     inkscape:groupmode="layer"
     id="layer1"
     transform="translate(127.65511,-123.12522)">
    <g
       id="g1774"
       transform="translate(-339.78206,14.082246)">
      <g
         id="path1045">
        <path
           style="color:#000000;-inkscape-font-specification:'KhaWa Sans Beta-Display Bold';fill:#ffffff;fill-rule:evenodd;-inkscape-stroke:none;paint-order:stroke fill markers"
           d="m 215.28516,115 v 1.25 c 0,0.82252 -0.149,1.50642 -0.42188,2.09766 v 0.004 l -0.002,0.004 c -0.27409,0.60488 -0.69617,1.20593 -1.29688,1.80664 l -0.36718,0.36719 v 1.35742 l 0.61718,0.36328 c 0.67463,0.39684 1.34058,0.95733 1.99219,1.70508 l 0.002,0.004 0.004,0.002 c 0.59311,0.67089 1.01684,1.46513 1.28125,2.4414 l 0.33984,1.25782 4.33203,-1.36719 -0.20312,-1.08789 c -0.1996,-1.06924 -0.63685,-2.0975 -1.27539,-3.0625 -0.40064,-0.61326 -0.84743,-1.06217 -1.28516,-1.54492 0.23438,-0.40549 0.49814,-0.75444 0.69336,-1.25 v -0.004 l 0.002,-0.002 c 0.37059,-0.955 0.54882,-1.99499 0.54882,-3.0918 V 115 h -1.25 z m 2.24218,2.5 h 0.002 c -0.0622,0.30566 -0.056,0.66399 -0.16211,0.9375 -0.0182,0.0461 -0.0364,0.0552 -0.0547,0.0996 0.10428,-0.33334 0.15878,-0.68433 0.21484,-1.03711 z m -0.38867,1.88672 -0.004,0.008 c 5.2e-4,-0.001 -5.3e-4,-0.003 0,-0.004 7.2e-4,-0.002 0.003,-0.002 0.004,-0.004 z m 0.54688,2.91797 0.006,0.008 c -9.9e-4,-0.001 -0.003,-8.2e-4 -0.004,-0.002 -10e-4,-0.002 -6.1e-4,-0.004 -0.002,-0.006 z"
           id="path1458" />
        <path
           style="color:#000000;-inkscape-font-specification:'KhaWa Sans Beta-Display Bold';fill:#000000;fill-rule:evenodd;stroke-width:2.5;-inkscape-stroke:none;paint-order:stroke fill markers"
           d="m 218.99537,116.24937 q 0,1.4446 -0.4637,2.63952 -0.4637,1.17709 -1.01657,1.8548 0.89173,0.80256 1.72996,2.08665 0.83822,1.26625 1.08791,2.60385 l -2.03315,0.64205 q -0.4637,-1.71213 -1.55161,-2.94271 -1.08791,-1.24843 -2.30066,-1.96181 v -0.12484 q 1.03441,-1.03441 1.55161,-2.17582 0.53504,-1.15925 0.53504,-2.62169 z"
           id="path1460" />
      </g>
      <g
         id="path1047">
        <path
           style="color:#000000;-inkscape-font-specification:'KhaWa Sans Beta-Display Bold';fill:#ffffff;fill-rule:evenodd;-inkscape-stroke:none;paint-order:stroke fill markers"
           d="m 216.05273,109.04297 c -1.11031,0 -2.15375,0.26583 -2.90429,0.99609 -0.68826,0.66915 -1.02149,1.63625 -1.02149,2.60742 0,1.00038 0.36548,2.01377 1.13867,2.64454 l 0.008,0.008 0.008,0.006 c 0.69457,0.54834 1.58121,0.80273 2.48633,0.80273 0.46684,0 0.93165,-0.0746 1.36523,-0.25195 0.42539,-0.17402 0.84715,-0.45823 1.13672,-0.89258 l 0.17188,-0.25781 c 0.0533,0.0387 0.1286,0.0678 0.17968,0.10742 l 0.0137,0.01 0.0156,0.01 c 0.45634,0.33391 0.76879,0.60425 0.88281,0.72461 l 1.05469,1.11524 0.87891,-1.25977 1.41601,-2.03711 -0.35937,-0.67383 c -0.32469,-0.60879 -0.8048,-1.08739 -1.4375,-1.61523 -0.66777,-0.56941 -1.43754,-1.03928 -2.29102,-1.41406 -0.88767,-0.40717 -1.81342,-0.62891 -2.74219,-0.62891 z m 0.0137,2.66016 0.0273,0.0117 -0.0957,0.0527 c 0.23973,-0.13323 0.19747,-0.0713 0.0684,-0.0644 z m 2.23046,0.01 0.0273,0.0117 c -0.004,-0.002 -0.009,-0.002 -0.0137,-0.004 -0.005,-0.002 -0.009,-0.005 -0.0137,-0.008 z m 1.82813,1.10156 0.0293,0.0215 c -0.004,-0.003 -0.01,-0.005 -0.0137,-0.008 -0.007,-0.005 -0.009,-0.009 -0.0156,-0.0137 z"
           id="path1464" />
        <path
           style="color:#000000;-inkscape-font-specification:'KhaWa Sans Beta-Display Bold';fill:#000000;fill-rule:evenodd;stroke-width:2.5;-inkscape-stroke:none;paint-order:stroke fill markers"
           d="m 220.43999,114.69776 q -0.32102,-0.33886 -1.05224,-0.8739 -0.71339,-0.55287 -1.62295,-0.9809 -0.89173,-0.44586 -1.69429,-0.44586 -0.53504,0 -0.53504,0.28535 0,0.14268 0.16051,0.21402 0.17835,0.0535 0.37453,0.0535 0.37453,0 0.53504,-0.0892 l 0.62421,1.40893 q -0.17835,0.26752 -0.57071,0.42803 -0.39236,0.16051 -0.89173,0.16051 -1.0344,0 -1.71212,-0.53504 -0.67771,-0.55287 -0.67771,-1.67645 0,-1.08791 0.64204,-1.71212 0.65988,-0.64205 2.03315,-0.64205 1.10574,0 2.22932,0.51721 1.14142,0.49937 1.99748,1.23058 0.85606,0.71339 1.14141,1.24843 z"
           id="path1466" />
      </g>
      <g
         id="path1049">
        <path
           style="color:#000000;-inkscape-font-specification:'KhaWa Sans Beta-Display Bold';fill:#ffffff;fill-rule:evenodd;-inkscape-stroke:none;paint-order:stroke fill markers"
           d="m 226.82422,114.73242 c -1.65464,0 -3.14313,0.21387 -4.46094,0.67578 l -0.002,0.002 h -0.002 c -1.53275,0.54283 -2.54722,2.04601 -2.5625,3.69922 v 0.006 5.88672 l 0.49415,0.375 c 1.33203,1.01051 3.09942,1.43164 5.19531,1.43164 0.96452,0 1.86308,-0.19096 2.59765,-0.71289 l 0.008,-0.006 0.01,-0.006 c 0.0153,-0.0113 0.0183,-0.0314 0.0332,-0.043 l 1.75781,2.17773 0.84179,-0.31055 c 0.72047,-0.26544 1.32257,-0.75218 1.89454,-1.3789 0.8004,-0.86203 1.08203,-2.04855 1.08203,-3.37891 v -5.68945 l -0.19141,-0.30469 c -0.37554,-0.60086 -0.90131,-0.95441 -1.53516,-1.29297 -0.65637,-0.35747 -1.41697,-0.61467 -2.2871,-0.81055 -0.89366,-0.21595 -1.85212,-0.32031 -2.87305,-0.32031 z m -3.02149,2.45703 c -0.003,7.5e-4 -0.005,0.003 -0.008,0.004 -0.007,0.002 -0.0146,0.002 -0.0215,0.004 z m -1.19336,0.92969 c -0.1223,0.19685 -0.1931,0.40234 -0.24218,0.625 0.0327,-0.25062 0.11147,-0.49602 0.24218,-0.625 z m 8.60157,4.88477 v 0.14648 c 0,0.0474 -0.0185,0.0368 -0.0195,0.082 0.007,-0.0746 0.0142,-0.15125 0.0195,-0.22851 z m -4.42383,0.14843 v 0.14258 c 0,0.6297 -0.12476,0.73679 -0.16602,0.76758 -0.0653,0.0452 -0.3097,0.0537 -0.43164,0.0937 0.28233,-0.27927 0.54915,-0.60268 0.59766,-1.00391 z"
           id="path1470" />
        <path
           style="color:#000000;-inkscape-font-specification:'KhaWa Sans Beta-Display Bold';fill:#000000;fill-rule:evenodd;stroke-width:2.5;-inkscape-stroke:none;paint-order:stroke fill markers"
           d="m 229.10759,125.25584 q 0.30318,-0.30318 0.48153,-0.55287 0.17835,-0.24968 0.30319,-0.85606 0.14267,-0.62421 0.14267,-1.67645 v -3.53125 q -0.67771,-0.4637 -1.99747,-0.4637 v 5.11853 q 0,1.28409 -0.67772,1.78346 -0.67771,0.48153 -1.87263,0.48153 -2.8892,0 -4.44081,-1.17708 v -5.26121 q 0.0178,-1.92614 1.72995,-2.53251 1.72996,-0.60638 4.04846,-0.60638 1.40893,0 2.58601,0.28536 1.19492,0.26751 1.97964,0.69554 0.80256,0.42804 1.07008,0.85607 v 5.33254 q 0,1.72996 -0.74905,2.53251 -0.73122,0.80256 -1.40894,1.05225 z m -5.63574,-2.08664 q 0.26752,0.17834 0.60638,0.28535 0.35669,0.0892 0.67771,0.0892 0.37453,0 0.60638,-0.12484 0.24968,-0.14268 0.24968,-0.39236 v -4.85101 q -0.78472,0 -1.46243,0.21401 -0.67772,0.19618 -0.67772,0.73122 z"
           id="path1472" />
      </g>
      <g
         id="path1051">
        <path
           style="color:#000000;-inkscape-font-specification:'KhaWa Sans Beta-Display Bold';fill:#ffffff;fill-rule:evenodd;-inkscape-stroke:none;paint-order:stroke fill markers"
           d="m 232.99414,115.01758 v 7.41992 c 0,1.26908 0.40595,2.47547 1.32227,3.24219 l 0.004,0.004 0.006,0.004 c 0.79855,0.6548 1.79693,1.04359 2.90039,1.19922 h 0.008 l 0.008,0.002 c 1.01828,0.13055 2.32697,0.1875 3.97461,0.1875 h 1.25 v -1.25 -10.80859 h -4.54688 -0.39648 z"
           id="path1476" />
        <path
           style="color:#000000;-inkscape-font-specification:'KhaWa Sans Beta-Display Bold';fill:#000000;fill-rule:evenodd;stroke-width:2.5;-inkscape-stroke:none;paint-order:stroke fill markers"
           d="m 241.21728,125.82655 q -2.42551,0 -3.81661,-0.17834 -1.3911,-0.19619 -2.28283,-0.9274 -0.87389,-0.73122 -0.87389,-2.28283 v -6.17077 h 2.4255 v 6.17077 q 0,0.78472 0.64205,0.99873 0.64204,0.21402 1.46243,0.21402 v -7.38352 h 2.44335 z"
           id="path1478" />
      </g>
      <g
         id="path1053">
        <path
           style="color:#000000;-inkscape-font-specification:'KhaWa Sans Beta-Display Bold';fill:#ffffff;fill-rule:evenodd;-inkscape-stroke:none;paint-order:stroke fill markers"
           d="m 242.46484,115.01758 v 10.82812 h 4.78125 v -1.25 -9.57812 z"
           id="path1482" />
        <path
           style="color:#000000;-inkscape-font-specification:'KhaWa Sans Beta-Display Bold';fill:#000000;fill-rule:evenodd;stroke-width:2.5;-inkscape-stroke:none;paint-order:stroke fill markers"
           d="m 245.99693,124.59596 h -2.28282 v -8.32875 h 2.28282 z"
           id="path1484" />
      </g>
      <g
         id="path1055">
        <path
           style="color:#000000;-inkscape-font-specification:'KhaWa Sans Beta-Display Bold';fill:#ffffff;fill-rule:evenodd;-inkscape-stroke:none;paint-order:stroke fill markers"
           d="m 254.27148,114.73242 c -1.66729,0 -3.15493,0.1927 -4.46484,0.61133 l -0.002,0.002 c -0.76019,0.24549 -1.44876,0.68312 -1.91016,1.32422 -0.4614,0.6411 -0.65829,1.43142 -0.65039,2.23047 v 4.20703 l 0.46484,0.375 c 0.53752,0.43414 1.20567,0.69588 1.91016,0.91797 -0.62642,0.20468 -1.2326,0.4391 -1.69336,0.86914 l -0.84961,0.79297 2.20117,2.73242 0.69141,-0.0879 c 0.15204,-0.019 0.27057,-0.0254 0.34375,-0.0254 0.52009,0 1.29697,0.0745 2.2793,0.23438 0.97371,0.17039 1.96783,0.39664 2.98242,0.68164 1.00561,0.28248 1.83966,0.58849 2.48828,0.90234 l 0.83789,0.40625 2.94141,-3.22266 -1.27149,-0.79492 c -0.44967,-0.28104 -1.0384,-0.49944 -1.59765,-0.73047 0.34793,-0.22727 0.7594,-0.36682 1.05273,-0.66015 l 0.004,-0.006 0.006,-0.004 c 0.72299,-0.73981 1.12304,-1.75989 1.12304,-2.80078 v -1.96094 -3.33203 l -0.20312,-0.3125 c -0.38528,-0.59076 -0.9107,-0.92248 -1.54297,-1.24609 -0.6498,-0.33916 -1.40217,-0.58878 -2.26563,-0.78321 -0.89417,-0.21625 -1.85338,-0.32031 -2.875,-0.32031 z m -2.96289,2.33008 c -0.003,5.8e-4 -0.005,0.003 -0.008,0.004 -0.006,10e-4 -0.0121,6.1e-4 -0.0176,0.002 z m -1.2832,1.00195 c -0.0688,0.12084 -0.1302,0.22586 -0.17187,0.35743 0.0297,-0.0825 0.0298,-0.23673 0.0703,-0.29297 0.0163,-0.0226 0.0816,-0.0421 0.10156,-0.0645 z m 4.20898,3.24219 v 0.0977 c 0,0.59267 -0.10504,0.66843 -0.17968,0.7207 -0.0626,0.0429 -0.28505,0.0461 -0.38867,0.084 0.25583,-0.27816 0.52488,-0.54274 0.56835,-0.90234 z m 0.80274,4.37891 -0.0664,1.21289 c -0.6565,-0.15739 -1.31935,-0.33664 -1.96484,-0.44922 H 253 l -0.008,-0.002 c -0.4012,-0.0653 -0.66084,-0.0578 -1.01172,-0.0996 0.42524,-0.0905 0.70698,-0.16961 1.25586,-0.26953 l 0.0117,-0.002 c 0.74857,-0.12974 1.22366,-0.26095 1.78906,-0.39062 z m 2.68945,1.25781 -0.0156,0.006 c 0.002,-8.2e-4 0.004,-0.003 0.006,-0.004 0.003,-10e-4 0.007,-7.2e-4 0.01,-0.002 z"
           id="path1488" />
        <path
           style="color:#000000;-inkscape-font-specification:'KhaWa Sans Beta-Display Bold';fill:#000000;fill-rule:evenodd;stroke-width:2.5;-inkscape-stroke:none;paint-order:stroke fill markers"
           d="m 253.05945,118.122 q -0.82039,0 -1.48027,0.16052 -0.64205,0.14267 -0.65988,0.5707 v 2.49685 q 0.5707,0.32102 1.26625,0.32102 0.39236,0 0.62421,-0.10701 0.24969,-0.12484 0.24969,-0.37453 z m -4.56566,0.76689 q -0.0178,-1.80129 1.69429,-2.35417 1.72995,-0.55287 4.08412,-0.55287 1.40893,0 2.58602,0.28536 1.19492,0.26751 1.97964,0.67771 0.80256,0.4102 1.07007,0.82039 v 2.96055 1.9618 q 0,1.14142 -0.76688,1.92614 -0.76689,0.76689 -1.8548,1.15925 -1.08791,0.41019 -2.10448,0.49937 1.26625,0.24968 2.56818,0.69555 1.30192,0.44586 2.15798,0.9809 l -1.30192,1.42677 q -1.10575,-0.53504 -2.69303,-0.98091 -1.58728,-0.44586 -3.12105,-0.71338 -1.53378,-0.24968 -2.47901,-0.24968 -0.21402,0 -0.49937,0.0357 l -1.03441,-1.28409 q 0.53504,-0.49937 1.49811,-0.74905 0.9809,-0.26752 2.74653,-0.58854 1.8548,-0.32102 2.87137,-0.62421 1.03441,-0.32103 1.40893,-0.90957 0.10701,-0.41019 0.14268,-0.90956 0.0357,-0.49937 0.0357,-1.65862 v -2.15799 q -0.28535,-0.19618 -0.80256,-0.32102 -0.49937,-0.12484 -1.19492,-0.12484 v 3.26373 q 0,1.24842 -0.71338,1.74779 -0.69555,0.48154 -1.89047,0.48154 -2.99621,0 -4.38731,-1.12358 z"
           id="path1490" />
      </g>
      <g
         id="path1057">
        <path
           style="color:#000000;-inkscape-font-specification:'KhaWa Sans Beta-Display Bold';fill:#ffffff;fill-rule:evenodd;-inkscape-stroke:none;paint-order:stroke fill markers"
           d="m 252.4707,109.06055 c -1.18445,0 -2.25698,0.23756 -3.05273,0.96875 -0.72318,0.65333 -1.10352,1.63628 -1.10352,2.61718 0,1.00598 0.40276,2.03074 1.19727,2.64649 l 0.006,0.006 0.006,0.004 c 0.74486,0.56319 1.68168,0.80469 2.66211,0.80469 0.5237,0 1.04233,-0.0908 1.51953,-0.30078 l 0.0195,-0.008 0.0176,-0.01 c 0.4345,-0.20856 0.84201,-0.5008 1.14062,-0.92383 l 0.30274,-0.42968 c 0.35993,0.16243 0.7607,0.31362 1.06836,0.49023 l 0.004,0.002 0.004,0.002 c 0.62525,0.35241 1.04994,0.64196 1.14258,0.7207 l 1.18554,1.00781 0.72852,-1.375 1.16797,-2.20507 -0.51172,-0.64063 c -0.42432,-0.53041 -0.96884,-0.91511 -1.73633,-1.40625 -0.002,-0.001 -0.004,-8.8e-4 -0.006,-0.002 -0.80587,-0.52787 -1.70224,-0.97626 -2.68555,-1.34766 -0.001,-4.9e-4 -0.003,4.9e-4 -0.004,0 -1.03362,-0.40226 -2.06265,-0.62109 -3.07227,-0.62109 z"
           id="path1494" />
        <path
           style="color:#000000;-inkscape-font-specification:'KhaWa Sans Beta-Display Bold';fill:#000000;fill-rule:evenodd;stroke-width:2.5;-inkscape-stroke:none;paint-order:stroke fill markers"
           d="m 258.21366,114.69776 q -0.35669,-0.30319 -1.3376,-0.85606 -0.96306,-0.55287 -2.17582,-0.99874 -1.19492,-0.44586 -2.22932,-0.44586 -0.65988,0 -0.65988,0.26752 0,0.14267 0.19618,0.21401 0.21401,0.0535 0.48153,0.0535 0.49937,0 0.67772,-0.107 l 0.69555,1.31976 q -0.21402,0.30319 -0.65988,0.5172 -0.44587,0.19618 -1.01658,0.19618 -1.17708,0 -1.9083,-0.55287 -0.71338,-0.55287 -0.71338,-1.65862 0,-1.07007 0.69555,-1.69429 0.69555,-0.64204 2.21149,-0.64204 1.24842,0 2.62168,0.53504 1.37327,0.5172 2.46118,1.23058 1.08791,0.69555 1.4446,1.14142 z"
           id="path1496" />
      </g>
      <g
         id="path1059">
        <path
           style="color:#000000;-inkscape-font-specification:'KhaWa Sans Beta-Display Bold';fill:#ffffff;fill-rule:evenodd;-inkscape-stroke:none;paint-order:stroke fill markers"
           d="m 267.4707,114.73242 c -1.65464,0 -3.14508,0.21387 -4.46289,0.67578 l -0.002,0.002 h -0.002 c -1.53276,0.54283 -2.54723,2.04601 -2.5625,3.69922 v 0.006 5.88672 l 0.49414,0.375 c 1.33203,1.01051 3.10138,1.43164 5.19726,1.43164 0.96452,0 1.86113,-0.19096 2.59571,-0.71289 l 0.01,-0.006 0.008,-0.006 c 0.0153,-0.0112 0.0183,-0.0314 0.0332,-0.043 l 1.75976,2.17773 0.83985,-0.31055 c 0.71962,-0.26513 1.32315,-0.75129 1.89453,-1.37695 0.80131,-0.86213 1.08203,-2.04984 1.08203,-3.38086 v -5.68945 l -0.18945,-0.30469 c -0.37582,-0.6013 -0.9046,-0.95418 -1.53907,-1.29297 -0.65569,-0.35663 -1.41634,-0.61497 -2.28515,-0.81055 -0.89366,-0.21595 -1.85016,-0.32031 -2.8711,-0.32031 z m -3.02343,2.45703 c -0.003,7.5e-4 -0.005,0.003 -0.008,0.004 -0.007,0.002 -0.0146,0.002 -0.0215,0.004 z m -1.19336,0.92969 c -0.12231,0.19685 -0.19311,0.40234 -0.24219,0.625 0.0327,-0.25062 0.11147,-0.49602 0.24219,-0.625 z m 8.60156,4.88477 v 0.14648 c 0,0.0474 -0.0185,0.0368 -0.0195,0.082 0.007,-0.0746 0.0142,-0.15125 0.0195,-0.22851 z m -4.42383,0.15039 v 0.14062 c 0,0.6297 -0.12476,0.73679 -0.16602,0.76758 -0.0654,0.0452 -0.3094,0.0536 -0.43164,0.0937 0.28179,-0.27865 0.54842,-0.60148 0.59766,-1.00195 z"
           id="path1500" />
        <path
           style="color:#000000;-inkscape-font-specification:'KhaWa Sans Beta-Display Bold';fill:#000000;fill-rule:evenodd;stroke-width:2.5;-inkscape-stroke:none;paint-order:stroke fill markers"
           d="m 269.75263,125.25584 q 0.30319,-0.30318 0.48153,-0.55287 0.17835,-0.24968 0.30319,-0.85606 0.14268,-0.62421 0.14268,-1.67645 v -3.53125 q -0.67772,-0.4637 -1.99748,-0.4637 v 5.11853 q 0,1.28409 -0.67771,1.78346 -0.67772,0.48153 -1.87264,0.48153 -2.8892,0 -4.44081,-1.17708 v -5.26121 q 0.0178,-1.92614 1.72995,-2.53251 1.72996,-0.60638 4.04846,-0.60638 1.40893,0 2.58602,0.28536 1.19491,0.26751 1.97964,0.69554 0.80255,0.42804 1.07007,0.85607 v 5.33254 q 0,1.72996 -0.74905,2.53251 -0.73122,0.80256 -1.40893,1.05225 z m -5.63574,-2.08664 q 0.26752,0.17834 0.60638,0.28535 0.35669,0.0892 0.67771,0.0892 0.37453,0 0.60638,-0.12484 0.24969,-0.14268 0.24969,-0.39236 v -4.85101 q -0.78473,0 -1.46244,0.21401 -0.67772,0.19618 -0.67772,0.73122 z"
           id="path1502" />
      </g>
      <g
         id="path1061">
        <path
           style="color:#000000;-inkscape-font-specification:'KhaWa Sans Beta-Display Bold';fill:#ffffff;fill-rule:evenodd;-inkscape-stroke:none;paint-order:stroke fill markers"
           d="m 274.35156,115.01758 v 10.82812 h 4.78321 v -1.25 -9.57812 z"
           id="path1506" />
        <path
           style="color:#000000;-inkscape-font-specification:'KhaWa Sans Beta-Display Bold';fill:#000000;fill-rule:evenodd;stroke-width:2.5;-inkscape-stroke:none;paint-order:stroke fill markers"
           d="m 277.8852,124.59596 h -2.28283 v -8.32875 h 2.28283 z"
           id="path1508" />
      </g>
      <g
         id="path1064">
        <path
           style="color:#000000;-inkscape-font-specification:'Broken Console Bold';fill:#ffffff;fill-rule:evenodd;stroke-linecap:square;-inkscape-stroke:none;paint-order:stroke markers fill"
           d="m 283.4668,113.22266 v 14.44336 h 1.25 4.92187 v -4.3418 h -1.83008 v -5.76953 h 1.83008 v -4.33203 z"
           id="path1512" />
        <path
           style="color:#000000;-inkscape-font-specification:'Broken Console Bold';fill:#000000;fill-rule:evenodd;stroke-width:2.5;stroke-linecap:square;-inkscape-stroke:none;paint-order:stroke markers fill"
           d="m 284.71706,126.41543 h 3.67212 v -1.84109 h -1.83103 v -8.26982 h 1.83103 v -1.83103 h -3.67212 z"
           id="path1514" />
      </g>
      <g
         id="path1066">
        <path
           style="color:#000000;-inkscape-font-specification:'Broken Console Bold';fill:#ffffff;fill-rule:evenodd;stroke-linecap:square;-inkscape-stroke:none;paint-order:stroke markers fill"
           d="m 291.36523,115.05469 v 10.76953 h 3.68164 0.65821 3.67187 v -4.58789 -0.66797 -4.58789 h -0.91406 v -0.92578 h -1.25 z"
           id="path1518" />
        <path
           style="color:#000000;-inkscape-font-specification:'Broken Console Bold';fill:#000000;fill-rule:evenodd;stroke-width:2.5;stroke-linecap:square;-inkscape-stroke:none;paint-order:stroke markers fill"
           d="m 297.21232,116.30452 h -4.59769 v 8.26982 h 1.84109 v -2.75661 h 1.84109 v 2.75661 h 1.83103 v -2.75661 h -0.91552 v -1.83103 h 0.91552 v -2.7566 h -0.91552 z m -0.91551,3.68218 h -1.84109 v -1.84109 h 1.84109 z"
           id="path1520" />
      </g>
      <g
         id="path1068">
        <path
           style="color:#000000;-inkscape-font-specification:'Broken Console Bold';fill:#ffffff;fill-rule:evenodd;stroke-linecap:square;-inkscape-stroke:none;paint-order:stroke markers fill"
           d="m 298.08594,115.05469 v 4.34179 H 299 v 2.08594 h -0.91406 v 4.3418 h 1.25 4.92187 v -4.3418 h -0.91601 v -2.08594 h 0.91601 v -4.34179 z"
           id="path1524" />
        <path
           style="color:#000000;-inkscape-font-specification:'Broken Console Bold';fill:#000000;fill-rule:evenodd;stroke-width:2.5;stroke-linecap:square;-inkscape-stroke:none;paint-order:stroke markers fill"
           d="m 299.3351,124.57434 h 3.67212 v -1.84109 h -0.91551 v -4.58764 h 0.91551 v -1.84109 h -3.67212 v 1.84109 h 0.91552 v 4.58764 h -0.91552 z"
           id="path1526" />
      </g>
      <g
         id="path1070">
        <path
           style="color:#000000;-inkscape-font-specification:'Broken Console Bold';fill:#ffffff;fill-rule:evenodd;stroke-linecap:square;-inkscape-stroke:none;paint-order:stroke markers fill"
           d="m 302.96484,115.05469 v 10.76953 h 4.33985 v -0.91602 h 0.24804 v 0.91602 h 4.33985 v -4.3418 h -0.91406 v -0.91406 h -0.92579 v -0.25781 h 0.92579 v -0.91407 h 0.91406 v -4.34179 h -4.33985 v 0.92578 h -0.24804 v -0.92578 z"
           id="path1530" />
        <path
           style="color:#000000;-inkscape-font-specification:'Broken Console Bold';fill:#000000;fill-rule:evenodd;stroke-width:2.5;stroke-linecap:square;-inkscape-stroke:none;paint-order:stroke markers fill"
           d="m 308.80213,117.2301 h -0.91551 v 0.91551 h -0.91552 v 1.70024 h -0.91551 v -3.54133 h -1.84109 v 8.26982 h 1.84109 V 121.033 h 0.91551 v 1.70025 h 0.91552 v 0.92557 h 0.91551 v 0.91552 h 1.84109 v -1.84109 h -0.91551 v -0.91552 h -0.92558 v -0.91551 h -0.91551 v -0.91552 h 0.91551 v -0.92557 h 0.92558 v -0.91552 h 0.91551 v -1.84109 h -1.84109 z"
           id="path1532" />
      </g>
      <g
         id="path1072">
        <path
           style="color:#000000;-inkscape-font-specification:'Broken Console Bold';fill:#ffffff;fill-rule:evenodd;stroke-linecap:square;-inkscape-stroke:none;paint-order:stroke markers fill"
           d="m 310.39844,115.05469 v 4.34179 h 1.83203 v 6.42774 h 1.25 3.0918 v -6.42774 h 1.83984 v -4.34179 z"
           id="path1536" />
        <path
           style="color:#000000;-inkscape-font-specification:'Broken Console Bold';fill:#000000;fill-rule:evenodd;stroke-width:2.5;stroke-linecap:square;-inkscape-stroke:none;paint-order:stroke markers fill"
           d="m 313.48031,124.57434 h 1.84109 v -6.42873 h 1.84109 v -1.84109 h -5.5132 v 1.84109 h 1.83102 z"
           id="path1538" />
      </g>
      <g
         id="path1074">
        <path
           style="color:#000000;-inkscape-font-specification:'Broken Console Bold';fill:#ffffff;fill-rule:evenodd;stroke-linecap:square;-inkscape-stroke:none;paint-order:stroke markers fill"
           d="m 317.11914,115.05469 v 10.76953 h 3.68359 0.65821 3.67187 v -4.58789 -0.66797 -4.58789 h -0.91601 v -0.92578 h -1.25 z"
           id="path1542" />
        <path
           style="color:#000000;-inkscape-font-specification:'Broken Console Bold';fill:#000000;fill-rule:evenodd;stroke-width:2.5;stroke-linecap:square;-inkscape-stroke:none;paint-order:stroke markers fill"
           d="m 322.96745,116.30452 h -4.59769 v 8.26982 h 1.84109 v -2.75661 h 1.84109 v 2.75661 h 1.83103 v -2.75661 h -0.91552 v -1.83103 h 0.91552 v -2.7566 h -0.91552 z m -0.91551,3.68218 h -1.84109 v -1.84109 h 1.84109 z"
           id="path1544" />
      </g>
      <g
         id="path1076">
        <path
           style="color:#000000;-inkscape-font-specification:'Broken Console Bold';fill:#ffffff;fill-rule:evenodd;stroke-linecap:square;-inkscape-stroke:none;paint-order:stroke markers fill"
           d="m 323.83984,115.05469 v 4.34179 h 0.91602 v 2.08594 h -0.91602 v 4.3418 h 1.25 4.92188 v -4.3418 h -0.91406 v -2.08594 h 0.91406 v -4.34179 z"
           id="path1548" />
        <path
           style="color:#000000;-inkscape-font-specification:'Broken Console Bold';fill:#000000;fill-rule:evenodd;stroke-width:2.5;stroke-linecap:square;-inkscape-stroke:none;paint-order:stroke markers fill"
           d="m 325.09023,124.57434 h 3.67212 v -1.84109 h -0.91551 v -4.58764 h 0.91551 v -1.84109 h -3.67212 v 1.84109 h 0.91552 v 4.58764 h -0.91552 z"
           id="path1550" />
      </g>
      <g
         id="path1078">
        <path
           style="color:#000000;-inkscape-font-specification:'Broken Console Bold';fill:#ffffff;fill-rule:evenodd;stroke-linecap:square;-inkscape-stroke:none;paint-order:stroke markers fill"
           d="m 328.71875,115.05469 v 10.76953 h 4.3418 v -0.91602 h 0.24609 v 0.91602 h 4.3418 v -4.3418 h -0.91602 v -0.91406 h -0.92578 v -0.25781 h 0.92578 v -0.91407 h 0.91602 v -4.34179 h -4.3418 v 0.92578 h -0.24609 v -0.92578 z"
           id="path1554" />
        <path
           style="color:#000000;-inkscape-font-specification:'Broken Console Bold';fill:#000000;fill-rule:evenodd;stroke-width:2.5;stroke-linecap:square;-inkscape-stroke:none;paint-order:stroke markers fill"
           d="m 334.55726,117.2301 h -0.91551 v 0.91551 h -0.91552 v 1.70024 h -0.91551 v -3.54133 h -1.84109 v 8.26982 h 1.84109 V 121.033 h 0.91551 v 1.70025 h 0.91552 v 0.92557 h 0.91551 v 0.91552 h 1.84109 v -1.84109 h -0.91551 v -0.91552 h -0.92558 v -0.91551 h -0.91551 v -0.91552 h 0.91551 v -0.92557 h 0.92558 v -0.91552 h 0.91551 v -1.84109 h -1.84109 z"
           id="path1556" />
      </g>
      <g
         id="path1080">
        <path
           style="color:#000000;-inkscape-font-specification:'Broken Console Bold';fill:#ffffff;fill-rule:evenodd;stroke-linecap:square;-inkscape-stroke:none;paint-order:stroke markers fill"
           d="m 339.37305,113.22266 v 4.33203 h 1.25 0.59179 v 5.76953 h -1.84179 v 4.3418 h 6.17382 v -14.44336 z"
           id="path1560" />
        <path
           style="color:#000000;-inkscape-font-specification:'Broken Console Bold';fill:#000000;fill-rule:evenodd;stroke-width:2.5;stroke-linecap:square;-inkscape-stroke:none;paint-order:stroke markers fill"
           d="m 340.62381,116.30452 h 1.84109 v 8.26982 h -1.84109 v 1.84109 h 3.67212 v -11.94194 h -3.67212 z"
           id="path1562" />
      </g>
    </g>
  </g>
</svg>
